<svg width="54" height="53" viewBox="0 0 54 53" fill="none" xmlns="http://www.w3.org/2000/svg">
<path fill-rule="evenodd" clip-rule="evenodd" d="M27 0C12.0825 0 0 12.0825 0 27C0 38.9475 7.72875 49.0388 18.4612 52.6163C19.8112 52.8525 20.3175 52.0425 20.3175 51.3338C20.3175 50.6925 20.2838 48.5663 20.2838 46.305C13.5 47.5538 11.745 44.6512 11.205 43.1325C10.9012 42.3562 9.585 39.96 8.4375 39.3187C7.4925 38.8125 6.1425 37.5637 8.40375 37.53C10.53 37.4962 12.0488 39.4875 12.555 40.2975C14.985 44.3812 18.8663 43.2338 20.4188 42.525C20.655 40.77 21.3637 39.5887 22.14 38.9137C16.1325 38.2387 9.855 35.91 9.855 25.5825C9.855 22.6462 10.9013 20.2162 12.6225 18.3262C12.3525 17.6512 11.4075 14.8837 12.8925 11.1712C12.8925 11.1712 15.1538 10.4625 20.3175 13.9388C22.4775 13.3313 24.7725 13.0275 27.0675 13.0275C29.3625 13.0275 31.6575 13.3313 33.8175 13.9388C38.9813 10.4288 41.2425 11.1712 41.2425 11.1712C42.7275 14.8837 41.7825 17.6512 41.5125 18.3262C43.2338 20.2162 44.28 22.6125 44.28 25.5825C44.28 35.9437 37.9688 38.2387 31.9613 38.9137C32.94 39.7575 33.7838 41.3775 33.7838 43.9088C33.7838 47.52 33.75 50.4225 33.75 51.3338C33.75 52.0425 34.2563 52.8863 35.6063 52.6163C40.9662 50.8068 45.6238 47.362 48.9235 42.7667C52.2231 38.1715 53.9986 32.6572 54 27C54 12.0825 41.9175 0 27 0Z" fill="white"/>
</svg>
