<svg width="54" height="22" viewBox="0 0 54 22" fill="none" xmlns="http://www.w3.org/2000/svg">
<g clip-path="url(#clip0_218_192)">
<path d="M27.8792 7.61526L30.4483 7.4492C30.5069 7.86924 30.6143 8.18183 30.7902 8.40651C31.0734 8.75817 31.4642 8.934 31.9819 8.934C32.3629 8.934 32.6657 8.84609 32.8708 8.66049C33.0662 8.51396 33.1834 8.27952 33.1834 8.0353C33.1834 7.80086 33.076 7.57619 32.8904 7.42966C32.695 7.25383 32.2359 7.078 31.513 6.9217C30.331 6.65795 29.4812 6.30629 28.983 5.85694C28.4848 5.4369 28.2015 4.82148 28.2211 4.167C28.2211 3.71765 28.3578 3.2683 28.6118 2.8971C28.9049 2.47706 29.3054 2.14493 29.784 1.95933C30.3017 1.73465 31.0246 1.61743 31.9331 1.61743C33.0467 1.61743 33.8965 1.82257 34.4826 2.24261C35.0687 2.65289 35.4204 3.31714 35.5279 4.22561L32.9881 4.37213C32.9197 3.9814 32.7829 3.69811 32.5583 3.51251C32.3336 3.32691 32.0405 3.23899 31.6596 3.23899C31.347 3.23899 31.1125 3.30737 30.9562 3.43436C30.8097 3.55159 30.712 3.72742 30.7218 3.92279C30.7218 4.06931 30.7999 4.20607 30.9172 4.29399C31.0441 4.41121 31.347 4.51866 31.8256 4.61635C33.0076 4.87033 33.8477 5.12431 34.3654 5.38805C34.8831 5.6518 35.2543 5.97416 35.479 6.35513C35.7135 6.74587 35.8307 7.19522 35.8209 7.65434C35.8209 8.20137 35.6646 8.7484 35.352 9.20752C35.0297 9.68617 34.5803 10.0574 34.0528 10.282C33.496 10.5263 32.7927 10.6532 31.9526 10.6532C30.4678 10.6532 29.4421 10.37 28.8658 9.79363C28.2894 9.21729 27.9475 8.49442 27.8792 7.61526ZM0.615413 10.5067V1.77373H5.11867C5.94899 1.77373 6.59371 1.84211 7.03329 1.98863C7.4631 2.12539 7.84407 2.40868 8.09805 2.78965C8.38133 3.20969 8.51809 3.69811 8.50832 4.20607C8.53763 5.06569 8.09805 5.88625 7.34588 6.31606C7.05282 6.48212 6.73046 6.59934 6.39834 6.65795C6.64255 6.72633 6.88676 6.84355 7.10166 6.98031C7.26773 7.11707 7.40449 7.27337 7.53148 7.43943C7.678 7.60549 7.80499 7.79109 7.91245 7.98646L9.22142 10.5165H6.15413L4.70839 7.83017C4.52279 7.48827 4.3665 7.2636 4.21997 7.15614C4.0246 7.01939 3.79016 6.95101 3.55572 6.95101H3.32127V10.497H0.615413V10.5067ZM3.32127 5.30991H4.46418C4.70839 5.29037 4.94284 5.2513 5.17728 5.19269C5.35311 5.16338 5.50941 5.0657 5.61686 4.91917C5.88061 4.5675 5.84153 4.06931 5.51918 3.76649C5.34334 3.61996 5.00145 3.54182 4.51303 3.54182H3.32127V5.30991ZM0 17.9894L2.5691 17.8233C2.62771 18.2433 2.73517 18.5559 2.911 18.7806C3.18452 19.1323 3.58502 19.3179 4.10275 19.3179C4.48372 19.3179 4.78654 19.2299 4.99168 19.0443C5.18705 18.8881 5.30427 18.6634 5.30427 18.4192C5.30427 18.1847 5.19682 17.9601 5.01122 17.8135C4.81585 17.6377 4.35673 17.4619 3.6241 17.3056C2.44211 17.0418 1.59226 16.6902 1.09407 16.2408C0.595876 15.8208 0.31259 15.2053 0.332127 14.5509C0.332127 14.1015 0.468886 13.6522 0.722865 13.281C1.01592 12.8609 1.41643 12.5288 1.89508 12.3432C2.41281 12.1185 3.13567 12.0013 4.04414 12.0013C5.15774 12.0013 6.0076 12.2064 6.59371 12.6265C7.17981 13.0465 7.52171 13.701 7.62916 14.6095L5.08936 14.756C5.02098 14.3653 4.88423 14.082 4.65955 13.8964C4.44465 13.7108 4.14182 13.6229 3.76085 13.6326C3.44826 13.6326 3.21382 13.701 3.05753 13.8378C2.90123 13.955 2.81331 14.1308 2.82308 14.3262C2.82308 14.4727 2.90123 14.6095 3.01845 14.6974C3.14544 14.8146 3.44826 14.9221 3.92692 15.0197C5.1089 15.2737 5.94899 15.5277 6.46672 15.7915C6.98444 16.0552 7.35564 16.3776 7.58032 16.7585C7.81476 17.1493 7.93198 17.5986 7.93198 18.048C7.93198 18.595 7.76592 19.1323 7.4631 19.5914C7.14074 20.07 6.69139 20.4412 6.16389 20.6659C5.60709 20.9101 4.90376 21.0371 4.06368 21.0371C2.57887 21.0371 1.55318 20.7538 0.976845 20.1775C0.400507 19.5914 0.0781476 18.8685 0 17.9894H0Z" fill="white"/>
<path d="M12.9925 17.3055L15.3565 18.0186C15.2295 18.6145 14.9657 19.181 14.6043 19.6792C14.2722 20.1188 13.8326 20.4607 13.3344 20.6854C12.8264 20.91 12.1817 21.0273 11.4002 21.0273C10.4527 21.0273 9.67122 20.8905 9.07535 20.617C8.46971 20.3435 7.95198 19.8551 7.5124 19.1615C7.07282 18.4679 6.85791 17.579 6.85791 16.4947C6.85791 15.049 7.23888 13.9354 8.01059 13.1637C8.7823 12.392 9.86659 12.0012 11.2733 12.0012C12.3771 12.0012 13.2367 12.2259 13.8717 12.6655C14.4968 13.1148 14.9657 13.7986 15.2783 14.7168L12.8948 15.2443C12.8362 15.0392 12.7483 14.8341 12.6311 14.6582C12.4845 14.4531 12.2989 14.2968 12.0743 14.1796C11.8496 14.0624 11.5956 14.0135 11.3416 14.0135C10.7262 14.0135 10.2573 14.2577 9.93497 14.7559C9.69076 15.1174 9.56377 15.6937 9.56377 16.4752C9.56377 17.4422 9.7103 18.1065 10.0034 18.4679C10.2964 18.8294 10.7067 19.0052 11.2439 19.0052C11.7617 19.0052 12.1524 18.8587 12.4162 18.5754C12.6799 18.2726 12.8753 17.8525 12.9925 17.3055ZM18.5117 12.1477H21.2078V15.2053H24.1578V12.1477H26.8735V20.8807H24.1578V17.3446H21.2078V20.8807H18.5117V12.1477V12.1477Z" fill="white"/>
<path d="M26.5015 16.5142C26.5015 15.0881 26.902 13.9745 27.6932 13.1832C28.4845 12.392 29.5981 11.9915 31.0145 11.9915C32.47 11.9915 33.5836 12.3822 34.3748 13.1637C35.1661 13.9451 35.5568 15.0392 35.5568 16.4459C35.5568 17.4716 35.381 18.3019 35.0391 18.9564C34.707 19.6011 34.1892 20.1286 33.5543 20.4802C32.8998 20.8417 32.089 21.0273 31.1219 21.0273C30.1353 21.0273 29.3245 20.871 28.6798 20.5584C28.0156 20.2263 27.4685 19.7085 27.1071 19.0736C26.7066 18.3898 26.5015 17.5399 26.5015 16.5142ZM29.1976 16.524C29.1976 17.4032 29.3636 18.0381 29.686 18.4289C30.0083 18.8098 30.4577 19.0052 31.0243 19.0052C31.6006 19.0052 32.0499 18.8196 32.3723 18.4386C32.6947 18.0577 32.851 17.3836 32.851 16.4068C32.851 15.5862 32.6849 14.9806 32.3528 14.6094C32.0206 14.2284 31.5713 14.0428 31.0047 14.0428C30.5065 14.0233 30.0279 14.2382 29.6957 14.6192C29.3636 15.0001 29.1976 15.6351 29.1976 16.524V16.524ZM38.3213 16.5142C38.3213 15.0881 38.7218 13.9745 39.513 13.1832C40.3043 12.392 41.4179 11.9915 42.8343 11.9915C44.2898 11.9915 45.4132 12.3822 46.1947 13.1637C46.9761 13.9451 47.3766 15.0392 47.3766 16.4459C47.3766 17.4716 47.2008 18.3019 46.8589 18.9564C46.5268 19.6011 46.0091 20.1286 45.3741 20.4802C44.7196 20.8417 43.9088 21.0273 42.9418 21.0273C41.9552 21.0273 41.1444 20.871 40.4997 20.5584C39.8354 20.2263 39.2884 19.7085 38.9269 19.0736C38.5264 18.3898 38.3213 17.5399 38.3213 16.5142V16.5142ZM41.0174 16.524C41.0174 17.4032 41.1834 18.0381 41.5058 18.4289C41.8282 18.8098 42.2775 19.0052 42.8441 19.0052C43.4204 19.0052 43.8698 18.8196 44.1921 18.4386C44.5145 18.0577 44.6708 17.3836 44.6708 16.4068C44.6708 15.5862 44.5047 14.9806 44.1726 14.6094C43.8405 14.2284 43.3911 14.0428 42.8245 14.0428C42.3264 14.0233 41.8379 14.2382 41.5156 14.6192C41.1834 15.0001 41.0174 15.6351 41.0174 16.524V16.524Z" fill="white"/>
<path d="M47.0942 12.1477H49.7903V18.7316H54.0005V20.8807H47.0845V12.1477H47.0942Z" fill="white"/>
<path fill-rule="evenodd" clip-rule="evenodd" d="M45.8361 4.01689C44.2396 1.89841 40.8077 1.71483 38.1496 3.71798C35.4914 5.72114 34.722 9.07071 36.3185 11.1892C37.9149 13.3077 41.3468 13.4913 44.005 11.4881C46.6632 9.48495 47.4325 6.13538 45.8361 4.01689ZM37.9144 3.40593C40.685 1.31805 44.3809 1.43656 46.1481 3.78174C47.9154 6.12692 47.0107 9.71229 44.2401 11.8002C41.4695 13.888 37.7737 13.7695 36.0064 11.4244C34.2391 9.07917 35.1438 5.49381 37.9144 3.40593Z" fill="white"/>
<path d="M38.3321 6.96093L39.3089 6.27714L40.5104 7.98662C40.7156 8.26014 40.8719 8.55319 40.9891 8.87555C41.0575 9.11976 41.0379 9.38351 40.9402 9.61795C40.8132 9.91101 40.6081 10.1552 40.3346 10.3311C40.0122 10.5557 39.7387 10.6827 39.5043 10.7218C39.2796 10.7609 39.0452 10.7218 38.8303 10.6241C38.5958 10.5069 38.3907 10.3408 38.2344 10.1259L39.0745 9.34444C39.1428 9.45189 39.2308 9.54957 39.3284 9.62772C39.3968 9.67656 39.475 9.70587 39.5629 9.70587C39.6313 9.70587 39.6996 9.67656 39.7485 9.63749C39.8462 9.57888 39.9145 9.46166 39.9048 9.34444C39.8755 9.17837 39.8071 9.01231 39.6996 8.88532L38.3321 6.96093V6.96093ZM41.2626 8.04523L42.1515 7.3419C42.2492 7.45912 42.3762 7.54704 42.513 7.59588C42.7083 7.65449 42.9135 7.61542 43.0795 7.48843C43.1967 7.41028 43.2944 7.30283 43.3335 7.16607C43.3921 6.99024 43.2944 6.79487 43.1186 6.73626C43.0893 6.72649 43.06 6.71672 43.0307 6.71672C42.9135 6.70695 42.7083 6.7558 42.4055 6.88279C41.9073 7.08792 41.5166 7.16607 41.2235 7.13677C40.9402 7.10746 40.6765 6.96093 40.5202 6.71672C40.403 6.55066 40.3444 6.35529 40.3346 6.15992C40.3346 5.93525 40.3932 5.71057 40.5202 5.52497C40.7058 5.26122 40.9305 5.03655 41.204 4.86072C41.6143 4.57743 41.9757 4.44067 42.2883 4.44067C42.6009 4.44067 42.8939 4.5872 43.1674 4.89002L42.2883 5.58358C42.1125 5.35891 41.7803 5.31007 41.5556 5.4859L41.5263 5.5152C41.4287 5.57381 41.3603 5.66173 41.3212 5.76918C41.2919 5.84733 41.3114 5.93525 41.3603 6.00363C41.3994 6.05247 41.458 6.09154 41.5263 6.09154C41.6045 6.10131 41.7412 6.06224 41.9366 5.97432C42.425 5.76918 42.7962 5.65196 43.0502 5.61289C43.2651 5.57381 43.4898 5.59335 43.6949 5.68127C43.8805 5.75941 44.0368 5.89617 44.1443 6.06224C44.281 6.25761 44.3592 6.49205 44.369 6.73626C44.3787 6.99024 44.3104 7.23445 44.1736 7.44936C43.9978 7.71311 43.7731 7.93778 43.5093 8.11361C42.9721 8.48481 42.5325 8.64111 42.1808 8.5825C41.7999 8.52389 41.4873 8.32852 41.2626 8.04523V8.04523Z" fill="white"/>
</g>
<defs>
<clipPath id="clip0_218_192">
<rect width="54" height="20.0546" fill="white" transform="translate(0 0.972656)"/>
</clipPath>
</defs>
</svg>
