<svg width="62" height="50" viewBox="0 0 62 50" fill="none" xmlns="http://www.w3.org/2000/svg">
<g clip-path="url(#clip0_6_114)">
<path fill-rule="evenodd" clip-rule="evenodd" d="M19.532 6.16506H42.279C42.2627 6.07382 42.254 5.99016 42.2457 5.91055C42.2362 5.81916 42.2272 5.73311 42.208 5.64706L42.1711 5.49938L42.1708 5.49852L42.1708 5.49847C41.8613 4.26107 41.5519 3.02453 41.225 1.78706L41.224 1.77606C41.085 0.766065 40.219 -0.0129355 39.17 -0.0129355C39.089 -0.0129355 39.008 -0.00793555 38.938 6.4455e-05L23.1073 6.44084e-05C22.9836 -0.0226022 22.8552 -0.0339355 22.725 -0.0339355C21.582 -0.0339355 20.646 0.853064 20.568 1.98306C20.3482 2.83039 20.1416 3.67772 19.932 4.53766L19.9319 4.53774C19.8011 5.07425 19.6692 5.61567 19.532 6.16506ZM55.398 50.037L6.505 50.036C6.49207 50.036 6.47823 50.0363 6.4638 50.0365C6.44809 50.0368 6.43168 50.037 6.415 50.037C2.872 50.037 0 47.165 0 43.622C0 43.59 0 43.559 0.001 43.527V43.532C0.0723333 34.0967 0.0723333 24.6554 0.001 15.208V15.172C0.001 11.619 2.881 8.73903 6.434 8.73903H55.415C55.497 8.73503 55.593 8.73303 55.69 8.73303C59.085 8.73303 61.837 11.485 61.837 14.88C61.837 14.983 61.834 15.085 61.829 15.186L61.83 15.172V43.532C61.837 43.641 61.841 43.768 61.841 43.897C61.841 47.292 59.089 50.044 55.694 50.044C55.59 50.044 55.486 50.041 55.383 50.036L55.398 50.037ZM10.3188 17.0121C10.3169 17.0121 10.3149 17.0121 10.313 17.012H10.311C9.176 17.012 8.256 17.932 8.256 19.067C8.256 20.202 9.176 21.122 10.311 21.122C10.3146 21.122 10.3181 21.1219 10.3217 21.1218C10.3298 21.1219 10.3379 21.122 10.346 21.122H10.35C11.2734 21.0898 12.046 20.4641 12.2977 19.6134C12.3045 19.5906 12.3109 19.5676 12.3169 19.5444C12.3579 19.3864 12.381 19.2212 12.384 19.051V19.0491C12.384 19.049 12.384 19.049 12.384 19.049L12.384 19.049C12.3538 18.1809 11.8019 17.4472 11.0328 17.1514C10.8186 17.0689 10.5875 17.0202 10.346 17.012C10.3369 17.012 10.3278 17.012 10.3188 17.0121ZM30.861 39.671C36.556 39.671 41.172 35.055 41.172 29.36C41.172 23.665 36.556 19.049 30.861 19.049C25.179 19.049 20.57 23.645 20.55 29.322V29.396C20.55 35.071 25.15 39.671 30.825 39.671H30.861ZM30.938 39.67C30.9136 39.6707 30.8888 39.6709 30.8638 39.671L30.932 39.67H30.938ZM31.129 21.1401C35.507 21.2841 39.019 24.8011 39.152 29.1691V29.1821C39.154 29.2201 39.156 29.2651 39.156 29.3111C39.156 30.4431 38.272 31.3681 37.156 31.4341H37.15H37.132C35.987 31.4341 35.059 30.5061 35.059 29.3611C35.02 27.1091 33.215 25.2921 30.972 25.2331H30.966L30.9488 25.2333C30.9365 25.2336 30.9235 25.2341 30.91 25.2341C29.785 25.2341 28.873 24.3221 28.873 23.1971C28.873 23.1819 28.8732 23.167 28.8736 23.1521C28.8739 23.1365 28.8744 23.1209 28.8749 23.1051L28.875 23.1021V23.1061C28.929 22.0051 29.836 21.1321 30.946 21.1321C31.0075 21.1321 31.0682 21.1349 31.1279 21.1395L31.129 21.1401ZM31.1279 21.1395L31.127 21.1391L31.135 21.1401L31.1279 21.1395Z" fill="#CCBA8D"/>
</g>
<defs>
<clipPath id="clip0_6_114">
<rect width="62" height="50" fill="white"/>
</clipPath>
</defs>
</svg>
