<svg width="35" height="35" viewBox="0 0 35 35" fill="none" xmlns="http://www.w3.org/2000/svg">
<path d="M18.3958 35C13.4684 35 8.84507 33.0902 5.37737 29.6226C1.90966 26.1551 4.30826e-07 21.5315 4.30826e-07 16.6041C-0.000735143 13.2049 0.940458 9.872 2.71911 6.97533C4.49777 4.07866 7.04431 1.7315 10.0761 0.194395C10.388 0.0353936 10.7398 -0.0282144 11.0877 0.0115111C11.4355 0.0512365 11.7639 0.192536 12.032 0.41777C12.3 0.643004 12.4957 0.942195 12.5948 1.27799C12.6938 1.61379 12.6918 1.97133 12.5888 2.30596C11.7237 5.10034 11.6387 8.07801 12.343 10.9172C13.0472 13.7564 14.514 16.3491 16.5848 18.4153C18.0708 19.9124 19.8391 21.0999 21.7872 21.909C23.7353 22.7181 25.8245 23.1327 27.9339 23.1289C29.5476 23.1301 31.1523 22.8881 32.6938 22.411C33.0285 22.308 33.3861 22.3059 33.7219 22.4049C34.0577 22.5039 34.357 22.6997 34.5822 22.9677C34.8075 23.2358 34.9488 23.5643 34.9885 23.9121C35.0282 24.26 34.9645 24.6119 34.8055 24.9238C33.2684 27.9556 30.9212 30.5021 28.0245 32.2808C25.1278 34.0595 21.795 35.0007 18.3958 35V35ZM10.0124 2.90002C7.66144 4.33045 5.7194 6.34338 4.37415 8.74411C3.02891 11.1448 2.32599 13.8521 2.33339 16.6041C2.33339 25.4609 9.53889 32.6666 18.3958 32.6666C21.1477 32.674 23.855 31.9711 26.2558 30.6259C28.6565 29.2806 30.6695 27.3386 32.0999 24.9876C30.7339 25.3038 29.3362 25.4631 27.9341 25.4625C25.5181 25.4671 23.1252 24.9925 20.894 24.0661C18.6627 23.1396 16.6373 21.7799 14.9351 20.0654C12.7237 17.8582 11.1113 15.124 10.25 12.1207C9.38868 9.11737 9.30692 5.94413 10.0124 2.90046V2.90002Z" fill="white"/>
</svg>
